<mxfile host="65bd71144e" modified="2021-01-11T11:37:22.063Z" agent="5.0 (X11; Linux x86_64) AppleWebKit/537.36 (KHTML, like Gecko) Code/1.52.1 Chrome/83.0.4103.122 Electron/9.3.5 Safari/537.36" version="13.10.0" etag="SK__ySQL7EnL1EV3aEKd" type="embed">
    <diagram id="usnwxu4jv34MQLU5wgiS" name="Page-1">
        <mxGraphModel dx="1374" dy="635" grid="1" gridSize="10" guides="1" tooltips="1" connect="1" arrows="1" fold="1" page="1" pageScale="1" pageWidth="850" pageHeight="1100" math="0" shadow="0">
            <root>
                <mxCell id="0"/>
                <mxCell id="1" parent="0"/>
                <mxCell id="2" value="整体概念模块架构" style="swimlane;html=1;childLayout=stackLayout;resizeParent=1;resizeParentMax=0;startSize=20;" vertex="1" parent="1">
                    <mxGeometry x="70" y="100" width="840" height="370" as="geometry"/>
                </mxCell>
                <mxCell id="3" value="数据源/客户端" style="swimlane;html=1;startSize=20;" vertex="1" parent="2">
                    <mxGeometry y="20" width="120" height="350" as="geometry"/>
                </mxCell>
                <mxCell id="21" value="&lt;font color=&quot;#ffffff&quot;&gt;关系数据库&lt;/font&gt;" style="rounded=1;whiteSpace=wrap;html=1;fillColor=#3333FF;" vertex="1" parent="3">
                    <mxGeometry x="10" y="50" width="100" height="40" as="geometry"/>
                </mxCell>
                <mxCell id="22" value="&lt;font color=&quot;#ffffff&quot;&gt;日志文件&lt;/font&gt;&lt;span style=&quot;color: rgba(0 , 0 , 0 , 0) ; font-family: monospace ; font-size: 0px&quot;&gt;%3CmxGraphModel%3E%3Croot%3E%3CmxCell%20id%3D%220%22%2F%3E%3CmxCell%20id%3D%221%22%20parent%3D%220%22%2F%3E%3CmxCell%20id%3D%222%22%20value%3D%22%26lt%3Bfont%20color%3D%26quot%3B%23ffffff%26quot%3B%26gt%3B%E5%85%B3%E7%B3%BB%E6%95%B0%E6%8D%AE%E5%BA%93%26lt%3B%2Ffont%26gt%3B%22%20style%3D%22rounded%3D1%3BwhiteSpace%3Dwrap%3Bhtml%3D1%3BfillColor%3D%233333FF%3B%22%20vertex%3D%221%22%20parent%3D%221%22%3E%3CmxGeometry%20x%3D%2280%22%20y%3D%22170%22%20width%3D%22100%22%20height%3D%2240%22%20as%3D%22geometry%22%2F%3E%3C%2FmxCell%3E%3C%2Froot%3E%3C%2FmxGraphModel%3E&lt;/span&gt;" style="rounded=1;whiteSpace=wrap;html=1;fillColor=#3333FF;" vertex="1" parent="3">
                    <mxGeometry x="10" y="110" width="100" height="40" as="geometry"/>
                </mxCell>
                <mxCell id="23" value="&lt;font color=&quot;#ffffff&quot;&gt;服务终端&lt;/font&gt;" style="rounded=1;whiteSpace=wrap;html=1;fillColor=#3333FF;" vertex="1" parent="3">
                    <mxGeometry x="10" y="170" width="100" height="40" as="geometry"/>
                </mxCell>
                <mxCell id="24" value="&lt;font color=&quot;#ffffff&quot;&gt;用户程序&lt;/font&gt;" style="rounded=1;whiteSpace=wrap;html=1;fillColor=#3333FF;" vertex="1" parent="3">
                    <mxGeometry x="10" y="230" width="100" height="40" as="geometry"/>
                </mxCell>
                <mxCell id="4" value="集成/采集/抽取" style="swimlane;html=1;startSize=20;" vertex="1" parent="2">
                    <mxGeometry x="120" y="20" width="120" height="350" as="geometry"/>
                </mxCell>
                <mxCell id="25" value="&lt;font color=&quot;#ffffff&quot;&gt;批量抽取&lt;/font&gt;" style="rounded=1;whiteSpace=wrap;html=1;fillColor=#3333FF;" vertex="1" parent="4">
                    <mxGeometry x="10" y="50" width="100" height="40" as="geometry"/>
                </mxCell>
                <mxCell id="26" value="&lt;font color=&quot;#ffffff&quot;&gt;增量抽取&lt;/font&gt;&lt;span style=&quot;color: rgba(0 , 0 , 0 , 0) ; font-family: monospace ; font-size: 0px&quot;&gt;%3CmxGraphModel%3E%3Croot%3E%3CmxCell%20id%3D%220%22%2F%3E%3CmxCell%20id%3D%221%22%20parent%3D%220%22%2F%3E%3CmxCell%20id%3D%222%22%20value%3D%22%26lt%3Bfont%20color%3D%26quot%3B%23ffffff%26quot%3B%26gt%3B%E5%85%B3%E7%B3%BB%E6%95%B0%E6%8D%AE%E5%BA%93%26lt%3B%2Ffont%26gt%3B%22%20style%3D%22rounded%3D1%3BwhiteSpace%3Dwrap%3Bhtml%3D1%3BfillColor%3D%233333FF%3B%22%20vertex%3D%221%22%20parent%3D%221%22%3E%3CmxGeometry%20x%3D%2280%22%20y%3D%22170%22%20width%3D%22100%22%20height%3D%2240%22%20as%3D%22geometry%22%2F%3E%3C%2FmxCell%3E%3C%2Froot%3E%3C%2FmxGraphModel%3E&lt;/span&gt;" style="rounded=1;whiteSpace=wrap;html=1;fillColor=#3333FF;" vertex="1" parent="4">
                    <mxGeometry x="10" y="110" width="100" height="40" as="geometry"/>
                </mxCell>
                <mxCell id="5" value="总线/发布/订阅" style="swimlane;html=1;startSize=20;" vertex="1" parent="2">
                    <mxGeometry x="240" y="20" width="120" height="350" as="geometry"/>
                </mxCell>
                <mxCell id="67" value="&lt;font color=&quot;#ffffff&quot;&gt;数据总线&lt;/font&gt;" style="rounded=1;whiteSpace=wrap;html=1;fillColor=#3333FF;" vertex="1" parent="5">
                    <mxGeometry x="10" y="50" width="100" height="40" as="geometry"/>
                </mxCell>
                <mxCell id="6" value="加工/扩展/注入" style="swimlane;html=1;startSize=20;" vertex="1" parent="2">
                    <mxGeometry x="360" y="20" width="120" height="350" as="geometry"/>
                </mxCell>
                <mxCell id="27" value="&lt;font color=&quot;#ffffff&quot;&gt;流式处理&lt;/font&gt;&lt;span style=&quot;color: rgba(0 , 0 , 0 , 0) ; font-family: monospace ; font-size: 0px&quot;&gt;%3CmxGraphModel%3E%3Croot%3E%3CmxCell%20id%3D%220%22%2F%3E%3CmxCell%20id%3D%221%22%20parent%3D%220%22%2F%3E%3CmxCell%20id%3D%222%22%20value%3D%22%26lt%3Bfont%20color%3D%26quot%3B%23ffffff%26quot%3B%26gt%3B%E5%85%B3%E7%B3%BB%E6%95%B0%E6%8D%AE%E5%BA%93%26lt%3B%2Ffont%26gt%3B%22%20style%3D%22rounded%3D1%3BwhiteSpace%3Dwrap%3Bhtml%3D1%3BfillColor%3D%233333FF%3B%22%20vertex%3D%221%22%20parent%3D%221%22%3E%3CmxGeometry%20x%3D%2280%22%20y%3D%22170%22%20width%3D%22100%22%20height%3D%2240%22%20as%3D%22geometry%22%2F%3E%3C%2FmxCell%3E%3C%2Froot%3E%3C%2FmxGraphModel%3E&lt;/span&gt;" style="rounded=1;whiteSpace=wrap;html=1;fillColor=#3333FF;" vertex="1" parent="6">
                    <mxGeometry x="10" y="50" width="100" height="40" as="geometry"/>
                </mxCell>
                <mxCell id="28" value="&lt;font color=&quot;#ffffff&quot;&gt;数据注入&lt;/font&gt;" style="rounded=1;whiteSpace=wrap;html=1;fillColor=#3333FF;" vertex="1" parent="6">
                    <mxGeometry x="10" y="110" width="100" height="40" as="geometry"/>
                </mxCell>
                <mxCell id="12" value="存储/索引/缓存" style="swimlane;html=1;startSize=20;" vertex="1" parent="2">
                    <mxGeometry x="480" y="20" width="120" height="350" as="geometry"/>
                </mxCell>
                <mxCell id="30" value="&lt;font color=&quot;#ffffff&quot;&gt;关系数据库&lt;/font&gt;" style="rounded=1;whiteSpace=wrap;html=1;fillColor=#3333FF;" vertex="1" parent="12">
                    <mxGeometry x="10" y="50" width="100" height="40" as="geometry"/>
                </mxCell>
                <mxCell id="48" value="&lt;font color=&quot;#ffffff&quot;&gt;分布式存储&lt;/font&gt;" style="rounded=1;whiteSpace=wrap;html=1;fillColor=#3333FF;" vertex="1" parent="12">
                    <mxGeometry x="10" y="110" width="100" height="40" as="geometry"/>
                </mxCell>
                <mxCell id="49" value="&lt;font color=&quot;#ffffff&quot;&gt;索引存储&lt;/font&gt;" style="rounded=1;whiteSpace=wrap;html=1;fillColor=#3333FF;" vertex="1" parent="12">
                    <mxGeometry x="10" y="170" width="100" height="40" as="geometry"/>
                </mxCell>
                <mxCell id="50" value="&lt;font color=&quot;#ffffff&quot;&gt;缓存&lt;/font&gt;" style="rounded=1;whiteSpace=wrap;html=1;fillColor=#3333FF;" vertex="1" parent="12">
                    <mxGeometry x="10" y="230" width="100" height="40" as="geometry"/>
                </mxCell>
                <mxCell id="51" value="&lt;font color=&quot;#ffffff&quot;&gt;预计算存储&lt;/font&gt;" style="rounded=1;whiteSpace=wrap;html=1;fillColor=#3333FF;" vertex="1" parent="12">
                    <mxGeometry x="10" y="290" width="100" height="40" as="geometry"/>
                </mxCell>
                <mxCell id="19" value="查询/计算/服务" style="swimlane;html=1;startSize=20;" vertex="1" parent="2">
                    <mxGeometry x="600" y="20" width="120" height="350" as="geometry"/>
                </mxCell>
                <mxCell id="62" value="&lt;font color=&quot;#ffffff&quot;&gt;多维计算&lt;/font&gt;" style="rounded=1;whiteSpace=wrap;html=1;fillColor=#3333FF;" vertex="1" parent="19">
                    <mxGeometry x="10" y="50" width="100" height="40" as="geometry"/>
                </mxCell>
                <mxCell id="63" value="&lt;font color=&quot;#ffffff&quot;&gt;关系型计算&lt;/font&gt;" style="rounded=1;whiteSpace=wrap;html=1;fillColor=#3333FF;" vertex="1" parent="19">
                    <mxGeometry x="10" y="110" width="100" height="40" as="geometry"/>
                </mxCell>
                <mxCell id="64" value="&lt;font color=&quot;#ffffff&quot;&gt;树型计算&lt;/font&gt;" style="rounded=1;whiteSpace=wrap;html=1;fillColor=#3333FF;" vertex="1" parent="19">
                    <mxGeometry x="10" y="170" width="100" height="40" as="geometry"/>
                </mxCell>
                <mxCell id="65" value="&lt;font color=&quot;#ffffff&quot;&gt;图计算&lt;/font&gt;" style="rounded=1;whiteSpace=wrap;html=1;fillColor=#3333FF;" vertex="1" parent="19">
                    <mxGeometry x="10" y="230" width="100" height="40" as="geometry"/>
                </mxCell>
                <mxCell id="66" value="&lt;font color=&quot;#ffffff&quot;&gt;机器学习&lt;/font&gt;" style="rounded=1;whiteSpace=wrap;html=1;fillColor=#3333FF;" vertex="1" parent="19">
                    <mxGeometry x="10" y="290" width="100" height="40" as="geometry"/>
                </mxCell>
                <mxCell id="20" value="展示/分析/应用" style="swimlane;html=1;startSize=20;" vertex="1" parent="2">
                    <mxGeometry x="720" y="20" width="120" height="350" as="geometry"/>
                </mxCell>
                <mxCell id="57" value="&lt;font color=&quot;#ffffff&quot;&gt;关系数据库&lt;/font&gt;" style="rounded=1;whiteSpace=wrap;html=1;fillColor=#3333FF;" vertex="1" parent="20">
                    <mxGeometry x="10" y="50" width="100" height="40" as="geometry"/>
                </mxCell>
                <mxCell id="58" value="&lt;font color=&quot;#ffffff&quot;&gt;分布式存储&lt;/font&gt;" style="rounded=1;whiteSpace=wrap;html=1;fillColor=#3333FF;" vertex="1" parent="20">
                    <mxGeometry x="10" y="110" width="100" height="40" as="geometry"/>
                </mxCell>
                <mxCell id="59" value="&lt;font color=&quot;#ffffff&quot;&gt;索引存储&lt;/font&gt;" style="rounded=1;whiteSpace=wrap;html=1;fillColor=#3333FF;" vertex="1" parent="20">
                    <mxGeometry x="10" y="170" width="100" height="40" as="geometry"/>
                </mxCell>
                <mxCell id="60" value="&lt;font color=&quot;#ffffff&quot;&gt;缓存&lt;/font&gt;" style="rounded=1;whiteSpace=wrap;html=1;fillColor=#3333FF;" vertex="1" parent="20">
                    <mxGeometry x="10" y="230" width="100" height="40" as="geometry"/>
                </mxCell>
                <mxCell id="61" value="&lt;font color=&quot;#ffffff&quot;&gt;预计算存储&lt;/font&gt;" style="rounded=1;whiteSpace=wrap;html=1;fillColor=#3333FF;" vertex="1" parent="20">
                    <mxGeometry x="10" y="290" width="100" height="40" as="geometry"/>
                </mxCell>
                <mxCell id="68" value="&lt;font color=&quot;#ffffff&quot;&gt;数据管理：元数据 / 数据质量 / 血缘分析 / 数据资产&lt;/font&gt;" style="rounded=1;whiteSpace=wrap;html=1;fillColor=#3333FF;" vertex="1" parent="1">
                    <mxGeometry x="70" y="480" width="840" height="40" as="geometry"/>
                </mxCell>
                <mxCell id="69" value="&lt;font color=&quot;#ffffff&quot;&gt;数据安全： 安全审计/ 脱敏加密 / 权限角色 / 多租户&lt;/font&gt;" style="rounded=1;whiteSpace=wrap;html=1;fillColor=#3333FF;" vertex="1" parent="1">
                    <mxGeometry x="70" y="530" width="840" height="40" as="geometry"/>
                </mxCell>
                <mxCell id="70" value="&lt;font color=&quot;#ffffff&quot;&gt;开发运维：开发 / 测试 / 部署 / 运维 / 监控 / 预警 / 作业调度&lt;/font&gt;" style="rounded=1;whiteSpace=wrap;html=1;fillColor=#3333FF;" vertex="1" parent="1">
                    <mxGeometry x="70" y="580" width="840" height="40" as="geometry"/>
                </mxCell>
                <mxCell id="71" value="&lt;font color=&quot;#ffffff&quot;&gt;驱动引擎：事件引擎 / 动作引擎 / 规则引擎 / 预测引擎&lt;/font&gt;" style="rounded=1;whiteSpace=wrap;html=1;fillColor=#3333FF;" vertex="1" parent="1">
                    <mxGeometry x="70" y="630" width="840" height="40" as="geometry"/>
                </mxCell>
                <mxCell id="72" value="技术层面高阶设计思路" style="swimlane;html=1;childLayout=stackLayout;resizeParent=1;resizeParentMax=0;startSize=20;" vertex="1" parent="1">
                    <mxGeometry x="70" y="730" width="840" height="370" as="geometry"/>
                </mxCell>
                <mxCell id="73" value="数据源/客户端" style="swimlane;html=1;startSize=20;" vertex="1" parent="72">
                    <mxGeometry y="20" width="120" height="350" as="geometry"/>
                </mxCell>
                <mxCell id="74" value="&lt;font color=&quot;#ffffff&quot;&gt;关系数据库&lt;/font&gt;" style="rounded=1;whiteSpace=wrap;html=1;fillColor=#3333FF;" vertex="1" parent="73">
                    <mxGeometry x="10" y="50" width="100" height="40" as="geometry"/>
                </mxCell>
                <mxCell id="75" value="&lt;font color=&quot;#ffffff&quot;&gt;日志文件&lt;/font&gt;&lt;span style=&quot;color: rgba(0 , 0 , 0 , 0) ; font-family: monospace ; font-size: 0px&quot;&gt;%3CmxGraphModel%3E%3Croot%3E%3CmxCell%20id%3D%220%22%2F%3E%3CmxCell%20id%3D%221%22%20parent%3D%220%22%2F%3E%3CmxCell%20id%3D%222%22%20value%3D%22%26lt%3Bfont%20color%3D%26quot%3B%23ffffff%26quot%3B%26gt%3B%E5%85%B3%E7%B3%BB%E6%95%B0%E6%8D%AE%E5%BA%93%26lt%3B%2Ffont%26gt%3B%22%20style%3D%22rounded%3D1%3BwhiteSpace%3Dwrap%3Bhtml%3D1%3BfillColor%3D%233333FF%3B%22%20vertex%3D%221%22%20parent%3D%221%22%3E%3CmxGeometry%20x%3D%2280%22%20y%3D%22170%22%20width%3D%22100%22%20height%3D%2240%22%20as%3D%22geometry%22%2F%3E%3C%2FmxCell%3E%3C%2Froot%3E%3C%2FmxGraphModel%3E&lt;/span&gt;" style="rounded=1;whiteSpace=wrap;html=1;fillColor=#3333FF;" vertex="1" parent="73">
                    <mxGeometry x="10" y="110" width="100" height="40" as="geometry"/>
                </mxCell>
                <mxCell id="76" value="&lt;font color=&quot;#ffffff&quot;&gt;服务终端&lt;/font&gt;" style="rounded=1;whiteSpace=wrap;html=1;fillColor=#3333FF;" vertex="1" parent="73">
                    <mxGeometry x="10" y="170" width="100" height="40" as="geometry"/>
                </mxCell>
                <mxCell id="77" value="&lt;font color=&quot;#ffffff&quot;&gt;用户程序&lt;/font&gt;" style="rounded=1;whiteSpace=wrap;html=1;fillColor=#3333FF;" vertex="1" parent="73">
                    <mxGeometry x="10" y="230" width="100" height="40" as="geometry"/>
                </mxCell>
                <mxCell id="78" value="集成/采集/抽取" style="swimlane;html=1;startSize=20;" vertex="1" parent="72">
                    <mxGeometry x="120" y="20" width="120" height="350" as="geometry"/>
                </mxCell>
                <mxCell id="111" value="&lt;font color=&quot;#ffffff&quot;&gt;数据采集&lt;/font&gt;" style="rounded=1;whiteSpace=wrap;html=1;fillColor=#00BF00;strokeColor=none;" vertex="1" parent="78">
                    <mxGeometry x="10" y="50" width="100" height="270" as="geometry"/>
                </mxCell>
                <mxCell id="81" value="总线/发布/订阅" style="swimlane;html=1;startSize=20;" vertex="1" parent="72">
                    <mxGeometry x="240" y="20" width="120" height="350" as="geometry"/>
                </mxCell>
                <mxCell id="82" value="&lt;font color=&quot;#ffffff&quot;&gt;数据总线&lt;/font&gt;" style="rounded=1;whiteSpace=wrap;html=1;fillColor=#3333FF;" vertex="1" parent="81">
                    <mxGeometry x="10" y="50" width="100" height="40" as="geometry"/>
                </mxCell>
                <mxCell id="83" value="加工/扩展/注入" style="swimlane;html=1;startSize=20;" vertex="1" parent="72">
                    <mxGeometry x="360" y="20" width="120" height="350" as="geometry"/>
                </mxCell>
                <mxCell id="112" value="&lt;font color=&quot;#ffffff&quot;&gt;流式处理&lt;/font&gt;&lt;span style=&quot;color: rgba(0 , 0 , 0 , 0) ; font-family: monospace ; font-size: 0px&quot;&gt;%3CmxGraphModel%3E%3Croot%3E%3CmxCell%20id%3D%220%22%2F%3E%3CmxCell%20id%3D%221%22%20parent%3D%220%22%2F%3E%3CmxCell%20id%3D%222%22%20value%3D%22%26lt%3Bfont%20color%3D%26quot%3B%23ffffff%26quot%3B%26gt%3B%E6%95%B0%E6%8D%AE%E9%87%87%E9%9B%86%26lt%3B%2Ffont%26gt%3B%22%20style%3D%22rounded%3D1%3BwhiteSpace%3Dwrap%3Bhtml%3D1%3BfillColor%3D%2300BF00%3BstrokeColor%3Dnone%3B%22%20vertex%3D%221%22%20parent%3D%221%22%3E%3CmxGeometry%20x%3D%22200%22%20y%3D%22800%22%20width%3D%22100%22%20height%3D%22270%22%20as%3D%22geometry%22%2F%3E%3C%2FmxCell%3E%3C%2Froot%3E%3C%2FmxGraphModel%3E&lt;/span&gt;" style="rounded=1;whiteSpace=wrap;html=1;fillColor=#00BF00;strokeColor=none;" vertex="1" parent="83">
                    <mxGeometry x="10" y="50" width="100" height="270" as="geometry"/>
                </mxCell>
                <mxCell id="86" value="存储/索引/缓存" style="swimlane;html=1;startSize=20;" vertex="1" parent="72">
                    <mxGeometry x="480" y="20" width="120" height="350" as="geometry"/>
                </mxCell>
                <mxCell id="87" value="&lt;font color=&quot;#ffffff&quot;&gt;关系数据库&lt;/font&gt;" style="rounded=1;whiteSpace=wrap;html=1;fillColor=#3333FF;" vertex="1" parent="86">
                    <mxGeometry x="10" y="50" width="100" height="40" as="geometry"/>
                </mxCell>
                <mxCell id="88" value="&lt;font color=&quot;#ffffff&quot;&gt;分布式存储&lt;/font&gt;" style="rounded=1;whiteSpace=wrap;html=1;fillColor=#3333FF;" vertex="1" parent="86">
                    <mxGeometry x="10" y="110" width="100" height="40" as="geometry"/>
                </mxCell>
                <mxCell id="89" value="&lt;font color=&quot;#ffffff&quot;&gt;索引存储&lt;/font&gt;" style="rounded=1;whiteSpace=wrap;html=1;fillColor=#3333FF;" vertex="1" parent="86">
                    <mxGeometry x="10" y="170" width="100" height="40" as="geometry"/>
                </mxCell>
                <mxCell id="90" value="&lt;font color=&quot;#ffffff&quot;&gt;缓存&lt;/font&gt;" style="rounded=1;whiteSpace=wrap;html=1;fillColor=#3333FF;" vertex="1" parent="86">
                    <mxGeometry x="10" y="230" width="100" height="40" as="geometry"/>
                </mxCell>
                <mxCell id="91" value="&lt;font color=&quot;#ffffff&quot;&gt;预计算存储&lt;/font&gt;" style="rounded=1;whiteSpace=wrap;html=1;fillColor=#3333FF;" vertex="1" parent="86">
                    <mxGeometry x="10" y="290" width="100" height="40" as="geometry"/>
                </mxCell>
                <mxCell id="92" value="查询/计算/服务" style="swimlane;html=1;startSize=20;" vertex="1" parent="72">
                    <mxGeometry x="600" y="20" width="120" height="350" as="geometry"/>
                </mxCell>
                <mxCell id="113" value="&lt;font color=&quot;#ffffff&quot;&gt;计算服务&lt;/font&gt;" style="rounded=1;whiteSpace=wrap;html=1;fillColor=#00BF00;strokeColor=none;" vertex="1" parent="92">
                    <mxGeometry x="10" y="50" width="100" height="270" as="geometry"/>
                </mxCell>
                <mxCell id="98" value="展示/分析/应用" style="swimlane;html=1;startSize=20;" vertex="1" parent="72">
                    <mxGeometry x="720" y="20" width="120" height="350" as="geometry"/>
                </mxCell>
                <mxCell id="114" value="&lt;font color=&quot;#ffffff&quot;&gt;数据可视化&lt;/font&gt;" style="rounded=1;whiteSpace=wrap;html=1;fillColor=#00BF00;strokeColor=none;" vertex="1" parent="98">
                    <mxGeometry x="10" y="50" width="100" height="120" as="geometry"/>
                </mxCell>
                <mxCell id="115" value="&lt;font color=&quot;#ffffff&quot;&gt;数据开发&lt;/font&gt;" style="rounded=1;whiteSpace=wrap;html=1;fillColor=#3333FF;" vertex="1" parent="98">
                    <mxGeometry x="10" y="230" width="100" height="40" as="geometry"/>
                </mxCell>
                <mxCell id="116" value="&lt;font color=&quot;#ffffff&quot;&gt;数据应用&lt;/font&gt;" style="rounded=1;whiteSpace=wrap;html=1;fillColor=#3333FF;" vertex="1" parent="98">
                    <mxGeometry x="10" y="290" width="100" height="40" as="geometry"/>
                </mxCell>
                <mxCell id="104" value="&lt;font color=&quot;#ffffff&quot;&gt;数据管理：元数据 / 数据质量 / 血缘分析 / 数据资产&lt;/font&gt;" style="rounded=1;whiteSpace=wrap;html=1;fillColor=#3333FF;" vertex="1" parent="1">
                    <mxGeometry x="70" y="1110" width="840" height="40" as="geometry"/>
                </mxCell>
                <mxCell id="105" value="&lt;font color=&quot;#ffffff&quot;&gt;数据安全： 安全审计/ 脱敏加密 / 权限角色 / 多租户&lt;/font&gt;" style="rounded=1;whiteSpace=wrap;html=1;fillColor=#3333FF;" vertex="1" parent="1">
                    <mxGeometry x="70" y="1160" width="840" height="40" as="geometry"/>
                </mxCell>
                <mxCell id="106" value="&lt;font color=&quot;#ffffff&quot;&gt;开发运维：开发 / 测试 / 部署 / 运维 / 监控 / 预警 / 作业调度&lt;/font&gt;" style="rounded=1;whiteSpace=wrap;html=1;fillColor=#3333FF;" vertex="1" parent="1">
                    <mxGeometry x="70" y="1210" width="840" height="40" as="geometry"/>
                </mxCell>
                <mxCell id="107" value="&lt;font color=&quot;#ffffff&quot;&gt;驱动引擎：事件引擎 / 动作引擎 / 规则引擎 / 预测引擎&lt;/font&gt;" style="rounded=1;whiteSpace=wrap;html=1;fillColor=#3333FF;" vertex="1" parent="1">
                    <mxGeometry x="70" y="1260" width="840" height="40" as="geometry"/>
                </mxCell>
            </root>
        </mxGraphModel>
    </diagram>
</mxfile>